<svg width="56" height="56" viewBox="0 0 56 56" fill="none" xmlns="http://www.w3.org/2000/svg">
<rect x="4" y="4" width="48" height="48" rx="24" fill="#D1FADF"/>
<rect x="4" y="4" width="48" height="48" rx="24" stroke="#ECFDF3" stroke-width="8"/>
<path d="M38 27.0779V27.9979C37.9988 30.1543 37.3005 32.2526 36.0093 33.9797C34.7182 35.7069 32.9033 36.9704 30.8354 37.5818C28.7674 38.1932 26.5573 38.1198 24.5345 37.3725C22.5117 36.6252 20.7847 35.244 19.611 33.435C18.4373 31.6259 17.8798 29.486 18.0217 27.3342C18.1636 25.1825 18.9972 23.1342 20.3983 21.495C21.7994 19.8557 23.6928 18.7133 25.7962 18.2381C27.8996 17.7628 30.1003 17.9802 32.07 18.8579M38 19.9979L28 30.0079L25 27.0079" stroke="#039855" stroke-width="2" stroke-linecap="round" stroke-linejoin="round"/>
</svg>
